HIERARCHY
ROOT Hips
{
	OFFSET 0.000000 0.000000 0.000000 
	CHANNELS 6 Xposition Yposition Zposition Yrotation Zrotation Xrotation 
	JOINT Lumbar
	{
		OFFSET 0.000000 0.000000 0.000000 
		CHANNELS 3 Zrotation Xrotation Yrotation
		JOINT Neck
		{
			OFFSET 0.000000 0.445665 0.000000 
			CHANNELS 3 Zrotation Xrotation Yrotation
			End Site
			{
				OFFSET 0.000000 0.227535 0.000000 
			}
		}
		JOINT RightShoulder
		{
			OFFSET 0.019635 0.377685 0.194865 
			CHANNELS 3 Zrotation Xrotation Yrotation
			JOINT RightElbow
			{
				OFFSET 0.000000 -0.243375 0.000000 
				CHANNELS 2 Zrotation Yrotation
				JOINT RightWrist
				{
					OFFSET 0.000000 -0.264825 0.000000 
					CHANNELS 2 Zrotation Xrotation
					End Site
					{
						OFFSET 0.006600 -0.176220 0.000990 
					}
				}
			}
		}
		JOINT LeftShoulder
		{
			OFFSET 0.019635 0.377685 -0.194865 
			CHANNELS 3 Zrotation Xrotation Yrotation
			JOINT LeftElbow
			{
				OFFSET 0.000000 -0.243375 0.000000 
				CHANNELS 2 Zrotation Yrotation
				JOINT LeftWrist
				{
					OFFSET 0.000000 -0.264825 0.000000 
					CHANNELS 2 Zrotation Xrotation
					End Site
					{
						OFFSET 0.006600 -0.176220 -0.000990 
					}
				}
			}
		}
	}
	JOINT RightHip
	{
		OFFSET 0.052140 -0.069960 0.075570 
		CHANNELS 3 Zrotation Xrotation Yrotation
		JOINT RightKnee
		{
			OFFSET 0.000000 -0.402270 0.000000 
			CHANNELS 1 Zrotation
			JOINT RightAnkle
			{
				OFFSET 0.000000 -0.404085 0.000000 
				CHANNELS 3 Zrotation Xrotation Yrotation
				End Site
				{
					OFFSET 0.204105 -0.089430 0.008415 
				}
			}
		}
	}
	JOINT LeftHip
	{
		OFFSET 0.052140 -0.069960 -0.075570 
		CHANNELS 3 Zrotation Xrotation Yrotation
		JOINT LeftKnee
		{
			OFFSET 0.000000 -0.402270 0.000000 
			CHANNELS 1 Zrotation
			JOINT LeftAnkle
			{
				OFFSET 0.000000 -0.404085 0.000000 
				CHANNELS 3 Zrotation Xrotation Yrotation
				End Site
				{
					OFFSET 0.204105 -0.089430 -0.008415 
				}
			}
		}
	}
}
MOTION
Frames: 30
Frame Time: 0.02
0.57561 -0.95544 0.01073 -180.99372 30.00632 -0.76049 -8.47162 1.30478 -12.53814 -44.80553 -11.9462 -2.11994 -51.89932 -29.32892 -4.10922 75.70252 100.56829 17.73496 0.65567 24.2698 56.12114 -28.97307 49.67203 -96.51703 5.96208 -4.46316 109.04717 -11.67617 -11.67866 -81.40643 -13.91291 -2.75245 -3.93905 126.67075 -13.58956 -15.36056 -120.7228 -33.07449 -20.23927 -9.58993
0.57539 -0.9554 0.01091 -180.94915 30.18722 -1.00764 -8.35623 1.52735 -12.45364 -44.83491 -11.80996 -2.11994 -51.53154 -29.09483 -4.49588 76.15221 98.45719 15.3783 0.58655 21.18478 56.24237 -26.0368 49.37181 -95.4818 5.38344 -4.40603 108.76568 -11.59569 -11.05175 -81.28496 -13.94844 -2.65144 -3.88844 126.58909 -12.81225 -14.53492 -119.94173 -31.70217 -17.45564 -7.9235
0.57513 -0.95527 0.01116 -180.87393 30.37758 -1.30879 -8.26629 1.82365 -12.37144 -44.85341 -11.69712 -2.11994 -50.96349 -28.86796 -4.93173 76.48138 95.56089 12.5842 0.45009 17.94333 56.22063 -23.03529 48.97596 -94.4142 4.76892 -4.28253 108.43905 -11.55976 -10.39093 -81.22166 -13.97685 -2.54925 -3.83661 126.47806 -11.74168 -13.44178 -118.97362 -29.84175 -14.28897 -5.83372
0.57488 -0.95519 0.01137 -180.81865 30.55245 -1.58106 -8.15749 2.08256 -12.27656 -44.87781 -11.56094 -2.11994 -50.47428 -28.64593 -5.31928 76.83685 93.06996 10.02565 0.37032 14.78647 56.25133 -20.08412 48.6221 -93.37111 4.1784 -4.19801 108.13986 -11.50308 -9.75663 -81.13335 -14.00789 -2.45012 -3.78664 126.37475 -10.70328 -12.39571 -118.07724 -28.22361 -11.35242 -3.98115
0.57467 -0.95509 0.01162 -180.73854 30.7741 -1.87144 -8.07949 2.35827 -12.22928 -44.90035 -11.47569 -2.11994 -50.03363 -28.38791 -5.81318 77.31413 90.35949 7.2932 0.1834 11.56341 56.33376 -17.03697 48.27203 -92.27973 3.54933 -4.07886 107.81211 -11.44527 -9.06941 -81.04177 -14.04217 -2.34022 -3.73115 126.29713 -10.06514 -11.64485 -117.23614 -26.51523 -8.16351 -1.93697
0.57438 -0.955 0.0118 -180.7022 30.90144 -2.13707 -7.94466 2.61638 -12.08425 -44.92262 -11.29128 -2.11994 -49.445 -28.20748 -6.09873 77.50718 87.92932 4.83061 0.19975 8.44679 56.27396 -14.18039 47.89204 -91.28505 2.99522 -4.01521 107.53263 -11.40173 -8.48761 -80.96906 -14.06843 -2.25272 -3.68702 126.15654 -8.55641 -10.23851 -116.23471 -24.88375 -5.41793 -0.19338
0.57387 -0.95493 0.01175 -180.80005 30.75695 -2.32008 -7.63052 2.80733 -11.66559 -44.95607 -10.82358 -2.11994 -48.50139 -28.2367 -5.79326 76.96056 86.41487 3.1661 0.8297 5.63665 55.86813 -11.83215 47.45572 -90.55157 2.64601 -4.11892 107.40125 -11.38539 -8.19364 -80.94352 -14.06564 -2.22471 -3.67269 125.87084 -4.43232 -6.89307 -114.84929 -23.54217 -3.95811 0.63013
0.5733 -0.95486 0.01163 -180.94204 30.51862 -2.47642 -7.26095 2.97799 -11.14927 -44.98781 -10.25649 -2.11994 -47.41562 -28.34461 -5.2774 76.12936 85.21861 1.79966 1.66078 2.94539 55.32214 -9.68565 46.99235 -89.92004 2.37587 -4.2804 107.31978 -11.38235 -8.00966 -80.93342 -14.05614 -2.21968 -3.6701 125.5189 0.50774 -2.93208 -113.30688 -22.30252 -2.9654 1.1339
0.57276 -0.9548 0.01154 -181.05985 30.32948 -2.64578 -6.92734 3.15829 -10.67987 -45.01398 -9.73749 -2.11994 -46.39202 -28.41841 -4.8608 75.4178 83.91361 0.33511 2.37523 0.21678 54.83302 -7.46897 46.54 -89.25147 2.07785 -4.41692 107.21227 -11.37485 -7.78379 -80.90926 -14.05556 -2.20596 -3.66339 125.18295 4.8848 0.61721 -111.82809 -21.04383 -1.78182 1.77498
0.57221 -0.9547 0.01146 -181.19346 30.11409 -2.81364 -6.54983 3.33968 -10.19975 -45.06626 -9.2062 -2.11994 -45.37059 -28.48497 -4.43086 74.74189 82.43736 -1.2998 3.19023 -2.59023 54.368 -5.15661 46.09004 -88.54185 1.74595 -4.54727 107.11518 -11.36313 -7.52302 -80.91492 -14.03119 -2.18512 -3.65175 124.90497 10.07157 4.72617 -110.37521 -19.65346 -0.49458 2.46443
0.57166 -0.95468 0.01135 -181.30568 29.92967 -2.97707 -6.24945 3.51271 -9.71884 -45.06433 -8.6775 -2.11994 -44.31482 -28.58582 -3.97761 73.92705 81.39387 -2.50689 3.84892 -5.20061 53.821 -3.09548 45.62945 -87.94315 1.50205 -4.7031 107.0116 -11.36155 -7.3608 -80.86387 -14.05336 -2.18418 -3.65287 124.49165 13.77668 7.82066 -108.83373 -18.56727 0.46122 2.9719
0.57118 -0.95489 0.01119 -181.34253 29.86489 -3.1391 -6.18269 3.66985 -9.25888 -44.90937 -8.17253 -2.11994 -43.18847 -28.75684 -3.51578 72.78663 81.55873 -2.57159 3.98642 -7.32102 53.08592 -1.65302 45.1508 -87.61976 1.498 -4.9319 106.85418 -11.396 -7.45109 -80.63046 -14.21875 -2.23627 -3.689 123.71489 13.05915 7.8868 -107.08601 -18.30466 0.6091 3.05062
0.57071 -0.95518 0.011 -181.35737 29.83245 -3.29656 -6.19416 3.81844 -8.80181 -44.70069 -7.67481 -2.11994 -42.03528 -28.96048 -3.0368 71.51872 82.13718 -2.21983 3.96601 -9.24174 52.27328 -0.46186 44.66204 -87.40575 1.57688 -5.18155 106.69299 -11.4384 -7.636 -80.34316 -14.42885 -2.307 -3.73712 122.80576 10.84456 6.92301 -105.25614 -18.34563 0.43869 2.95584
0.57022 -0.95542 0.01082 -181.38617 29.77776 -3.45301 -6.16483 3.9692 -8.3437 -44.51909 -7.17888 -2.11994 -40.90253 -29.15274 -2.56251 70.31771 82.46778 -2.0791 4.04664 -11.23819 51.49414 0.8275 44.17532 -87.14586 1.60743 -5.41097 106.5495 -11.46892 -7.77243 -80.09475 -14.60991 -2.36668 -3.77796 121.96091 9.40133 6.48033 -103.46401 -18.24433 0.41679 2.94142
0.56977 -0.95571 0.01065 -181.40026 29.75144 -3.62149 -6.15511 4.12682 -7.88031 -44.32606 -6.65853 -2.11994 -39.73059 -29.3337 -2.09368 69.06994 83.05316 -1.83752 4.01692 -13.29659 50.71696 2.17857 43.69829 -86.87353 1.68589 -5.6877 106.34091 -11.53274 -7.93408 -79.78649 -14.82743 -2.43771 -3.82675 121.09512 7.60615 5.83799 -101.66191 -18.164 0.36322 2.91015
0.56925 -0.95591 0.01047 -181.4386 29.67527 -3.76428 -6.12465 4.26805 -7.43078 -44.14425 -6.19143 -2.11994 -38.63487 -29.54429 -1.61255 67.89165 83.21289 -1.70946 4.16905 -15.17682 49.91966 3.34262 43.19914 -86.65155 1.68293 -5.87017 106.26552 -11.53153 -8.06641 -79.58945 -14.97986 -2.48962 -3.86189 120.24389 6.17331 5.35555 -99.86649 -18.1114 0.30523 2.87636
0.56852 -0.95584 0.01024 -181.55425 29.4509 -3.83622 -6.0112 4.36864 -7.01167 -44.00513 -5.8758 -2.11994 -37.76481 -29.83381 -1.09888 66.94993 82.00213 -2.00979 4.92916 -16.64079 49.08219 4.06347 42.64131 -86.54335 1.43731 -5.78617 106.56651 -11.32497 -8.07447 -79.71645 -14.94036 -2.48067 -3.8544 119.45309 6.14164 5.59126 -98.0829 -18.05668 0.32163 2.88339
0.56771 -0.95568 0.01 -181.69394 29.17616 -3.88276 -5.87573 4.45264 -6.60835 -43.87935 -5.61314 -2.11994 -36.97138 -30.15058 -0.57486 66.08164 80.36432 -2.43754 5.86459 -17.92731 48.2287 4.60296 42.06201 -86.48128 1.10625 -5.6063 107.0002 -11.05627 -8.05222 -79.95647 -14.83414 -2.45228 -3.83301 118.68454 6.51574 6.01547 -96.31537 -18.01994 0.34525 2.89446
0.56693 -0.95557 0.00976 -181.81908 28.92675 -3.94177 -5.75489 4.54267 -6.20287 -43.74852 -5.32233 -2.11994 -36.1381 -30.45128 -0.05866 65.17209 78.98263 -2.8002 6.67412 -19.2788 47.38544 5.2196 41.49242 -86.39658 0.81198 -5.47107 107.3676 -10.83257 -8.05746 -80.14224 -14.75919 -2.43509 -3.81928 117.91357 6.67737 6.33444 -94.55795 -17.97721 0.36217 2.90177
0.56619 -0.95545 0.00952 -181.95863 28.66831 -3.9968 -5.61708 4.63876 -5.77584 -43.6119 -5.0478 -2.11994 -35.32552 -30.76915 0.47084 64.29046 77.35536 -3.17943 7.67167 -20.69189 46.52629 5.85219 40.92157 -86.32274 0.52833 -5.33303 107.75933 -10.54162 -8.01123 -80.33835 -14.68145 -2.40896 -3.80052 117.10369 6.90573 6.70156 -92.72122 -17.93523 0.38213 2.91092
0.56536 -0.95531 0.00929 -182.07438 28.41605 -4.05399 -5.50856 4.71841 -5.39795 -43.49076 -4.75324 -2.11994 -34.48772 -31.05676 0.9756 63.37076 76.1306 -3.55866 8.32348 -21.93405 45.69826 6.40851 40.34974 -86.23584 0.20234 -5.17661 108.13298 -10.37183 -8.05992 -80.54046 -14.59354 -2.39609 -3.78851 116.38406 7.11096 7.02518 -91.05813 -17.89283 0.40166 2.91955
0.56427 -0.95516 0.00911 -182.11651 28.19521 -4.12484 -5.48439 4.75654 -5.14759 -43.41335 -4.37855 -2.11994 -33.56724 -31.25846 1.40285 62.32135 76.13818 -3.91856 7.95927 -22.77378 44.95412 6.82766 39.76984 -86.1006 -0.22941 -5.00305 108.41508 -10.58694 -8.41071 -80.7315 -14.48994 -2.42893 -3.80064 115.89063 7.15837 7.19806 -89.84146 -17.83597 0.42059 2.92651
0.56309 -0.95499 0.00895 -182.13431 27.98176 -4.19846 -5.49045 4.77876 -4.94693 -43.35054 -3.98395 -2.11994 -32.61752 -31.42774 1.80622 61.23334 76.56049 -4.27339 7.24559 -23.44279 44.24361 7.17189 39.19243 -85.95027 -0.6989 -4.81253 108.67602 -10.91984 -8.85163 -80.92477 -14.37901 -2.47492 -3.8196 115.49142 7.17507 7.32317 -88.80512 -17.77812 0.44009 2.93355
0.56196 -0.95484 0.00878 -182.16473 27.76347 -4.26987 -5.48348 4.80848 -4.72637 -43.27853 -3.60639 -2.11994 -31.67798 -31.60896 2.22448 60.16758 76.77992 -4.62566 6.7044 -24.17508 43.5217 7.53302 38.61999 -85.80691 -1.14579 -4.62269 108.95277 -11.17533 -9.22929 -81.11749 -14.27363 -2.51191 -3.83395 115.06098 7.20965 7.46477 -87.70546 -17.72503 0.45943 2.94095
0.56079 -0.95467 0.00859 -182.18954 27.54982 -4.34445 -5.47267 4.83662 -4.49508 -43.21776 -3.19742 -2.11994 -30.75542 -31.80319 2.62509 59.083 77.04517 -5.00509 6.11027 -24.96542 42.78176 7.96121 38.01816 -85.66467 -1.62074 -4.45821 109.20839 -11.52818 -9.69959 -81.31287 -14.15613 -2.56086 -3.85408 114.58141 7.24041 7.63316 -86.52662 -17.65475 0.47829 2.94674
0.55969 -0.95452 0.00844 -182.21975 27.32874 -4.41334 -5.47746 4.86433 -4.29764 -43.13692 -2.84787 -2.11994 -29.78803 -31.96197 3.05788 58.02931 77.31943 -5.32208 5.5427 -25.59164 42.08883 8.23287 37.48203 -85.51599 -2.04245 -4.23934 109.50077 -11.70868 -9.99936 -81.50087 -14.06358 -2.58845 -3.86411 114.22737 7.2673 7.73352 -85.55659 -17.61954 0.49833 2.95586
0.55883 -0.95445 0.0084 -182.2721 27.08749 -4.46689 -5.51726 4.89635 -4.18254 -42.99643 -2.67231 -2.11994 -28.71538 -32.03298 3.57514 57.05465 77.51515 -5.49398 5.11929 -25.84842 41.50712 8.10335 37.09602 -85.35195 -2.33019 -3.86379 109.90319 -11.37106 -9.80124 -81.6754 -14.03688 -2.55248 -3.84357 114.18715 7.28647 7.64648 -85.10871 -17.68296 0.52112 2.97437
0.55805 -0.95441 0.0084 -182.33025 26.83868 -4.51465 -5.57234 4.92837 -4.09958 -42.8351 -2.55615 -2.11994 -27.59528 -32.06886 4.12773 56.11497 77.70842 -5.59771 4.73608 -25.93774 40.97368 7.81681 36.78182 -85.18193 -2.55845 -3.43621 110.34168 -10.85918 -9.42998 -81.84052 -14.0367 -2.49493 -3.8129 114.2713 7.30185 7.49419 -84.86659 -17.78136 0.5451 2.99617
0.55723 -0.95436 0.00838 -182.38494 26.59178 -4.56439 -5.62043 4.95931 -4.00112 -42.68393 -2.40906 -2.11994 -26.49011 -32.11923 4.67047 55.16923 77.90581 -5.71498 4.34377 -26.07875 40.42488 7.59553 36.45506 -85.01521 -2.79895 -3.04031 110.76128 -10.43557 -9.14068 -82.00445 -14.02798 -2.44823 -3.78761 114.30539 7.31991 7.37789 -84.53701 -17.86257 0.56888 3.01639
0.5564 -0.95429 0.00835 -182.44277 26.35022 -4.61656 -5.6681 4.99386 -3.90799 -42.53121 -2.27741 -2.11994 -25.4154 -32.17478 5.18508 54.1807 78.10341 -5.90593 3.90251 -26.32199 39.84903 7.39982 36.04389 -84.84552 -3.10336 -2.61121 111.19232 -9.97585 -8.8385 -82.19143 -14.00441 -2.3975 -3.75929 114.31733 7.33272 7.23196 -84.1883 -17.94903 0.5915 3.0371
